<?xml version="1.0" encoding="UTF-8" standalone="no"?>
<svg
   aria-hidden="true"
   role="img"
   class="iconify iconify--logos"
   width="28.085154"
   height="31.999998"
   preserveAspectRatio="xMidYMid"
   viewBox="0 0 225.52696 256.99998"
   version="1.1"
   id="svg20"
   sodipodi:docname="favicon.svg"
   inkscape:version="1.2.2 (b0a8486541, 2022-12-01)"
   xmlns:inkscape="http://www.inkscape.org/namespaces/inkscape"
   xmlns:sodipodi="http://sodipodi.sourceforge.net/DTD/sodipodi-0.dtd"
   xmlns="http://www.w3.org/2000/svg"
   xmlns:svg="http://www.w3.org/2000/svg">
  <sodipodi:namedview
     id="namedview22"
     pagecolor="#ffffff"
     bordercolor="#000000"
     borderopacity="0.25"
     inkscape:showpageshadow="2"
     inkscape:pageopacity="0.0"
     inkscape:pagecheckerboard="0"
     inkscape:deskcolor="#d1d1d1"
     showgrid="false"
     inkscape:zoom="7.9380649"
     inkscape:cx="40.438067"
     inkscape:cy="20.785922"
     inkscape:window-width="1366"
     inkscape:window-height="709"
     inkscape:window-x="0"
     inkscape:window-y="27"
     inkscape:window-maximized="1"
     inkscape:current-layer="svg20" />
  <defs
     id="defs14">
    <linearGradient
       id="IconifyId1813088fe1fbc01fb466"
       x1="-0.0082799997"
       x2="0.57635999"
       y1="0.076519996"
       y2="0.78411001">
      <stop
         offset="0%"
         stop-color="#41D1FF"
         id="stop2" />
      <stop
         offset="100%"
         stop-color="#BD34FE"
         id="stop4" />
    </linearGradient>
    <linearGradient
       id="IconifyId1813088fe1fbc01fb467"
       x1="0.43375999"
       x2="0.50316"
       y1="0.02242"
       y2="0.89029998">
      <stop
         offset="0%"
         stop-color="#FFEA83"
         id="stop7" />
      <stop
         offset="8.333%"
         stop-color="#FFDD35"
         id="stop9" />
      <stop
         offset="100%"
         stop-color="#FFA800"
         id="stop11" />
    </linearGradient>
    <clipPath
       clipPathUnits="userSpaceOnUse"
       id="clipPath3052">
      <path
         style="fill:#f2913f;fill-opacity:1;stroke:none;stroke-width:30.3544;paint-order:stroke fill markers;stop-color:#000000"
         d="m 304.36661,125.31398 46.89671,15.6885 36.70286,8.28262 41.27165,-3.63745 18.77153,-14.53908 L 485.12721,83.400588 483.62387,9.1804632 399.4407,-6.5024253 264.96633,-2.9915895 264.93099,105.35321 Z"
         id="path3054" />
    </clipPath>
    <clipPath
       clipPathUnits="userSpaceOnUse"
       id="clipPath4062">
      <rect
         style="fill:#666666;fill-opacity:1;stroke:none;stroke-width:30.3544;paint-order:stroke fill markers;stop-color:#000000"
         id="rect4064"
         width="50.683594"
         height="49.948826"
         x="100.74043"
         y="30.137821"
         rx="22.986341"
         ry="9.2263117" />
    </clipPath>
  </defs>
  <path
     style="fill:#cccccc;fill-opacity:1;stroke:none;stroke-width:151.771;stroke-linecap:round;stroke-linejoin:round;stroke-miterlimit:8.4;stroke-opacity:0.979763;paint-order:stroke fill markers;stop-color:#000000"
     d="m 121.92745,41.168714 13.7039,10.150052 4.2809,3.779348 6.15561,-14.711413 11.52966,16.780971 6.86041,31.923771 c 0,0 -31.74806,-6.251356 -33.37691,-6.251356 -1.62883,0 -24.40762,13.459002 -24.40762,13.459002 l -9.487206,24.070281 -16.315226,-10.39261 -19.10903,3.47271 -9.59231,16.35764 3.29374,14.3546 11.967,8.24745 10.97654,1.11626 9.071616,-2.74236 6.53372,-6.82149 5.73787,-12.23871 9.941486,10.76028 13.92479,9.1592 17.14731,2.87436 19.45073,-5.95 16.32545,-16.80724 5.83155,9.11578 2.9997,10.31655 -2.61578,18.02316 -8.74079,28.15467 -4.43394,10.49706 -44.62815,8.79003 -43.849162,2.76002 -45.45667,-4.89436 -16.93552,-5.94196 -3.16554,-40.85224 1.83611,-20.81957 7.40034,13.30923 10.6088,-30.1767 13.66227,-30.576347 -3.30878,-14.741545 43.392786,-27.105858 1.55318,-16.764762 25.778496,10.928213 2.59451,-14.081962 z"
     id="path939" />
  <path
     style="fill:#cccccc;fill-opacity:1;stroke:none;stroke-width:151.771;stroke-linecap:round;stroke-linejoin:round;stroke-miterlimit:8.4;stroke-opacity:0.979763;paint-order:stroke fill markers;stop-color:#000000"
     d="m 210.9141,193.99437 9.16165,22.87334 2.38852,29.02617 -117.8269,7.2896 -61.497002,-11.05925 -39.1733196,-16.31906 5.80986,-9.65975 -0.14641,-10.04527 39.4003496,8.85592 38.537586,3.63651 38.089926,-1.93031 47.95852,-10.91857 z"
     id="path527" />
  <path
     style="fill:#55ff55;fill-opacity:1;stroke:none;stroke-width:151.771;stroke-linecap:round;stroke-linejoin:round;stroke-miterlimit:8.4;stroke-opacity:0.979763;paint-order:stroke fill markers;stop-color:#000000"
     d="m 18.872478,149.12974 19.66259,38.94313 14.48585,21.17685 6.38844,-20.17596 6.13834,-8.82011 8.7144,21.8149 9.812446,16.67012 10.65983,0.19596 3.03898,-19.22374 10.686276,-27.1415 7.17801,19.44181 5.22792,24.45666 12.29906,-2.78985 9.94386,-29.89487 2.43045,-15.58954 12.48746,18.65762 9.50418,20.5022 5.36961,-3.27457 9.87586,-32.07624 7.87197,-43.91255 10.50535,33.80829 3.09845,30.82332 -20.63228,12.24235 -45.38212,10.85328 -30.98486,3.59481 -26.618742,0.54444 -58.05049,-9.22591 -6.92602,-45.56495 z"
     id="path721" />
  <path
     style="fill:#0d0d0d;stroke:none;stroke-width:30.3543"
     d="m 126.92961,0 c 6.83018,14.524658 14.62392,33.680147 10.76781,49.87232 h -1.13343 C 124.0999,28.285945 95.082104,11.088216 70.256458,10.767905 v 0.566727 C 86.952354,18.605327 108.9098,29.618041 115.59499,47.605405 108.81512,43.8667 103.08438,38.115552 96.326164,34.155136 80.170908,24.687942 57.159878,18.038783 38.519568,23.235983 v 0.566727 c 14.132,1.754943 32.26399,10.698455 40.23791,22.669225 -7.98588,-5.866274 -16.66873,-9.630688 -26.63635,-9.634412 v 0.566719 c 12.3439,4.510276 21.25802,9.08594 27.76978,20.969045 -13.61401,-5.745508 -36.42553,-17.660113 -49.30557,-3.400386 13.45927,-2.31961 29.4014,2.640421 37.97096,13.601552 -21.7749,-6.010179 -44.22024,-8.241966 -65.1741096,1.70019 v 0.56675 c 14.8067896,-1.9745 34.3819296,-2.5979 47.0386996,6.80077 -14.5508,-1.4157 -38.06769,0.30432 -44.2050296,16.43518 11.0154096,-2.72426 21.3525496,-9.31931 32.8704196,-3.635 2.68235,1.32387 6.35251,3.53754 7.46496,6.48453 1.49732,3.964837 -4.43972,11.685977 -6.11444,15.285867 -6.28905,13.51824 -10.77716,27.49154 -16.08554,41.37137 h -0.56671 l -6.23406,-18.70214 h -0.56673 c -4.22841,23.82198 -2.9068,45.74257 -0.56672,69.70795 L 2.2487584,199.48933 c 1.14666,4.54746 6.10532,12.42672 4.58129,17.00193 -1.13162,3.39699 -4.93204,6.02323 -6.84817003,9.06769 13.58001963,5.91725 26.57302963,12.76336 40.80462963,17.24221 37.55494,11.81751 79.838202,15.32783 119.013432,13.89796 22.08216,-0.80646 43.80833,-6.41934 65.74083,-7.33745 0,-21.39015 -3.85382,-43.64227 -13.60158,-62.90715 l -6.23399,2.26693 c -0.0215,-18.7639 -4.57922,-38.24019 -10.00508,-56.10641 -1.73534,-5.71546 -3.20653,-15.00646 -7.5636,-19.26884 l -2.83368,27.20309 h -1.13343 c -0.37689,-5.14704 -3.25413,-9.69562 -3.73419,-14.73499 -0.72604,-7.62084 0.86368,-14.0844 -2.21933,-21.5358 -2.42565,-5.863947 -8.19948,-10.103097 -10.2057,-15.868447 -2.4216,-6.96174 -2.49307,-14.93451 -4.34796,-22.10253 C 159.35792,49.674598 152.9017,33.745265 143.59429,19.268871 139.3319,12.639416 133.93551,3.912428 126.92961,0 m -6.80078,45.338489 13.60149,11.334602 -1.70017,-3.967105 9.63446,7.367496 2.8336,-13.601547 h 0.5668 l 3.40039,11.901352 h 0.56672 l 0.56672,-5.667301 h 0.56672 c 5.87128,10.149023 10.7633,20.350727 10.7679,32.303667 -7.63387,-2.43185 -14.43862,-5.56021 -22.66923,-5.56021 -5.2213,0 -10.16949,1.59252 -15.30173,2.15983 v -0.56673 l 24.36938,-13.60154 v -1.13348 l -16.43516,-2.833655 1.13343,2.266935 c -17.4366,8.57067 -29.04947,19.35613 -39.671186,35.704057 3.18165,0.10195 5.11766,0.19834 7.36751,-2.266927 h 0.566786 L 95.192634,116.7466 c -4.95263,-3.95068 -8.9691,-7.49333 -15.301726,-9.0343 -24.19373,-5.88606 -40.17445,25.76647 -20.96566,41.64572 2.80816,2.32129 6.11333,3.96427 9.63105,4.89199 3.76531,0.99292 7.52224,1.21453 11.33461,0.36101 4.159796,-0.93113 8.116126,-2.9368 11.331216,-5.73191 4.15242,-3.61009 6.94815,-8.0096 7.93762,-13.43039 5.954076,3.85829 9.430446,10.5123 15.868446,14.25614 14.26693,8.29636 33.70635,8.45731 47.60542,-0.82065 5.78801,-3.86397 9.2502,-10.15243 14.73501,-14.00224 1.22304,6.50494 4.38425,12.60864 4.99683,19.26887 1.0581,11.50408 -4.27308,26.03846 -7.89848,36.83753 -1.49108,4.44203 -2.91813,9.55112 -6.16601,13.03483 -7.56248,-14.13542 -13.14077,-29.91266 -24.93618,-41.3714 -1.35274,13.89115 -3.82427,28.29405 -8.83252,41.3714 -1.3273,3.46611 -4.98155,12.70836 -10.51397,9.22863 -2.76229,-1.73704 -3.21001,-9.65823 -4.05324,-12.62904 -3.19811,-11.27115 -6.04423,-23.69615 -11.73757,-34.00385 -4.75432,12.02547 -9.379966,23.81856 -12.933346,36.27077 -0.90511,3.17257 -1.16356,11.42926 -4.34685,13.08074 -5.72003,2.96909 -9.602136,-4.66137 -11.785746,-8.54687 -6.84388,-12.1785 -9.79197,-25.09033 -12.8722,-38.53773 l -14.735,33.43715 c -7.57152,-6.72654 -12.77293,-17.75682 -17.40715,-26.63637 -1.74547,-3.34428 -4.6209,-7.47406 -4.77936,-11.33462 -0.16264,-3.96598 1.85363,-8.7067 3.00553,-12.46809 2.39276,-7.81012 4.87499,-15.58398 7.74209,-23.23597 2.61944,-6.98893 5.80109,-14.0827 9.79371,-20.40232 1.60437,-2.54009 5.43497,-5.90817 5.38958,-9.067697 -0.0483,-3.32503 -3.84748,-6.34795 -5.44457,-9.0677 l 6.8008,2.26692 -1.70024,-4.53384 7.3675,-1.13348 -1.13344,-3.40037 18.13541,2.26692 -9.06774,-9.63442 17.001956,3.40038 -4.533836,-7.93424 c 4.999696,0.20799 9.488216,0.98668 13.601586,3.96712 l -6.23408,-9.0677 13.034766,3.40039 -13.034766,-16.435207 c 8.5446,2.85123 14.977516,7.730797 22.102516,13.034817 C 107.608,59.41722 100.67126,54.856168 93.492484,51.00579 v -0.566719 c 11.027996,1.10455 19.996466,6.155266 30.036726,10.201154 l -3.40038,-15.301736 m 12.46804,41.576514 c 11.69963,-1.47464 24.39665,2.09859 32.72987,10.65341 14.22097,14.598977 10.66704,38.033327 -6.66024,48.502557 -5.0008,3.02124 -10.66014,4.78942 -16.43517,5.54603 -27.8288,3.64521 -52.749056,-26.88179 -34.02033,-51.30279 2.59568,-3.384517 5.97398,-6.187547 9.65087,-8.335457 4.43582,-2.59167 9.62764,-4.41993 14.735,-5.06375 m -64.040572,1.49505 -5.10055,7.36747 15.86845,4.717507 10.767886,3.78347 C 86.179964,97.604123 75.915328,90.591973 68.556298,88.410053 M 122.9625,113.3462 c 0.009,2.95777 0.008,5.84696 1.52958,8.49246 4.80811,8.35363 18.19315,8.85291 24.22154,1.63785 5.4032,-6.46584 2.0521,-16.24589 -5.3517,-19.35443 -2.48792,-1.04449 -5.27287,-1.08132 -7.93137,-0.93794 -2.10034,0.11267 -5.465,0.61207 -6.66817,2.62284 -2.07537,3.46897 2.40744,10.03171 -5.79988,7.53922 m -49.305662,-0.35987 c 25.792006,-2.14903 30.086652,36.53432 3.96713,38.80126 -20.6494,1.79257 -32.33651,-24.9379 -13.03478,-36.18637 2.79001,-1.62593 5.87072,-2.34796 9.06765,-2.61489 m -2.26687,12.82797 v 1.13345 c 1.64636,2.35759 0.44312,3.62253 -1.70023,5.10058 6.87899,13.13117 14.461826,-11.02066 1.70023,-6.23403 m 119.580232,9.63442 c 4.77302,13.2037 7.64464,27.9308 8.4862,41.9381 0.23579,3.91896 1.99829,10.38817 -0.18976,13.94725 -1.32897,2.16095 -4.38994,2.97649 -6.59622,3.8872 -5.53407,2.28505 -11.07109,4.91299 -17.00187,5.96824 l 11.51027,-40.80463 3.79146,-24.93616 m -172.286282,18.70212 16.37282,33.43714 17.06431,26.06962 c -6.46192,-1.13176 -12.90507,-2.05723 -19.26892,-3.71661 -2.23399,-0.58204 -5.13906,-0.80874 -6.87954,-2.47889 -2.85253,-2.7373 -3.31609,-9.35277 -4.05054,-13.07333 -1.71607,-8.69424 -2.61532,-17.26606 -3.37107,-26.06963 -0.3868,-4.50553 -1.23327,-9.7784 0.13286,-14.1683 m 127.514532,18.13539 c 6.53441,8.76109 14.94179,22.64036 17.00188,33.43715 l -26.06963,6.23403 -0.56671,-0.56674 7.46218,-24.36941 2.17228,-14.73503 m -37.40425,5.66733 c 4.80305,10.84837 7.99658,24.98432 8.50096,36.83752 l -20.402286,1.13346 c 2.51573,-11.70358 4.950336,-28.04696 11.901326,-37.97098 m -44.205012,7.93424 7.665,18.1354 7.07001,12.46806 -23.23596,-2.26691 c 0.0254,-9.16292 2.15294,-21.32212 8.50095,-28.33655 M 7.9160984,225.55895 c 4.2437696,-6.44488 6.5119996,-6.21645 3.9671196,-14.16828 5.42586,-1.04675 11.64677,1.86343 17.00188,2.86598 11.42819,2.14054 22.98211,3.91383 34.57065,4.93507 33.247216,2.92945 67.286242,0.45114 99.744582,-7.45135 11.52508,-2.8059 23.00707,-6.24991 34.00386,-10.71803 2.63021,-1.06828 9.37886,-5.20488 11.70413,-2.395 5.7053,6.8954 8.53612,22.21358 9.82888,30.89871 0.42102,2.82688 2.30372,8.38255 -0.33045,10.52649 -3.29954,2.68516 -10.30149,3.25701 -14.40178,3.69904 -11.06144,1.19127 -22.32578,1.77104 -33.43713,2.17966 -22.50318,0.82629 -45.4932,4.5548 -68.0077,3.37659 C 70.379488,247.62462 37.455208,237.96356 7.9160984,225.55895 Z"
     id="path301" />
</svg>
