<?xml version="1.0" encoding="UTF-8" standalone="no"?>
<!-- Created with Inkscape (http://www.inkscape.org/) -->

<svg
   width="142.84724mm"
   height="132.3842mm"
   viewBox="0 0 142.84724 132.3842"
   version="1.1"
   id="svg5"
   xml:space="preserve"
   sodipodi:docname="brother-combined.svg"
   inkscape:version="1.2.2 (b0a8486541, 2022-12-01)"
   xmlns:inkscape="http://www.inkscape.org/namespaces/inkscape"
   xmlns:sodipodi="http://sodipodi.sourceforge.net/DTD/sodipodi-0.dtd"
   xmlns="http://www.w3.org/2000/svg"
   xmlns:svg="http://www.w3.org/2000/svg"><sodipodi:namedview
     id="namedview7"
     pagecolor="#ffffff"
     bordercolor="#000000"
     borderopacity="0.25"
     inkscape:showpageshadow="2"
     inkscape:pageopacity="0.0"
     inkscape:pagecheckerboard="0"
     inkscape:deskcolor="#d1d1d1"
     inkscape:document-units="mm"
     showgrid="false"
     inkscape:zoom="0.7042597"
     inkscape:cx="349.30296"
     inkscape:cy="242.80816"
     inkscape:window-width="1366"
     inkscape:window-height="709"
     inkscape:window-x="0"
     inkscape:window-y="27"
     inkscape:window-maximized="1"
     inkscape:current-layer="layer2" /><defs
     id="defs2"><clipPath
       clipPathUnits="userSpaceOnUse"
       id="clipPath386"><rect
         style="fill:#ffcc00;fill-opacity:0;stroke:#000000;stroke-width:0.999998;paint-order:stroke fill markers;stop-color:#000000"
         id="rect388"
         width="80.522079"
         height="93.953094"
         x="28.889767"
         y="14.082063"
         rx="12.4715"
         ry="12.4715" /></clipPath><clipPath
       clipPathUnits="userSpaceOnUse"
       id="clipPath446"><path
         style="fill:#ffcc00;fill-opacity:0;stroke:#000000;stroke-width:0.999998;paint-order:stroke fill markers;stop-color:#000000"
         d="m 104.14714,82.802881 1.41832,3.77489 0.99226,1.76136 -10.229421,6.696956 -7.397181,3.427463 -8.91013,2.77796 -7.81146,1.22484 -9.80798,-0.0263 -10.086274,-1.99777 -6.762287,0.88103 L 38.716551,92.72134 22.235374,18.637439 70.923928,15.462588 101.41461,30.819061 101.06152,62.593 Z"
         id="path448" /></clipPath><clipPath
       clipPathUnits="userSpaceOnUse"
       id="clipPath241"><path
         style="fill:none;fill-opacity:0.889887;stroke:#ff0000;stroke-width:1;stroke-linecap:round;stroke-linejoin:round;stroke-miterlimit:8.4;stroke-dasharray:none;stroke-opacity:0.979763;paint-order:stroke fill markers;stop-color:#000000"
         d="m 106.85847,166.93916 24.93296,47.65572 2.11869,33.66595 -5.26587,0.81395 -6.57824,0.9352 -9.76332,0.71864 -12.527603,-0.24517 -8.053919,-0.76608 -7.583851,-1.19482 -9.588808,-2.27801 -8.773532,-3.42089 -4.09095,-2.19969 2.579047,-2.82941 -1.921051,-5.46283 1.922771,0.74332 -10.324747,-59.86015 z"
         id="path243"
         sodipodi:nodetypes="ccccccccccccccccc" /></clipPath><clipPath
       clipPathUnits="userSpaceOnUse"
       id="clipPath4062"><rect
         style="fill:#666666;fill-opacity:1;stroke:none;stroke-width:30.3544;paint-order:stroke fill markers;stop-color:#000000"
         id="rect4064"
         width="50.683594"
         height="49.948826"
         x="100.74043"
         y="30.137821"
         rx="22.986341"
         ry="9.2263117" /></clipPath><clipPath
       clipPathUnits="userSpaceOnUse"
       id="clipPath4062-6"><rect
         style="fill:#666666;fill-opacity:1;stroke:none;stroke-width:30.3544;paint-order:stroke fill markers;stop-color:#000000"
         id="rect4064-8"
         width="50.683594"
         height="49.948826"
         x="100.74043"
         y="30.137821"
         rx="22.986341"
         ry="9.2263117" /></clipPath><clipPath
       clipPathUnits="userSpaceOnUse"
       id="clipPath4062-7"><rect
         style="fill:#666666;fill-opacity:1;stroke:none;stroke-width:30.3544;paint-order:stroke fill markers;stop-color:#000000"
         id="rect4064-2"
         width="50.683594"
         height="49.948826"
         x="100.74043"
         y="30.137821"
         rx="22.986341"
         ry="9.2263117" /></clipPath><clipPath
       clipPathUnits="userSpaceOnUse"
       id="clipPath4062-1"><rect
         style="fill:#666666;fill-opacity:1;stroke:none;stroke-width:30.3544;paint-order:stroke fill markers;stop-color:#000000"
         id="rect4064-1"
         width="50.683594"
         height="49.948826"
         x="100.74043"
         y="30.137821"
         rx="22.986341"
         ry="9.2263117" /></clipPath><clipPath
       clipPathUnits="userSpaceOnUse"
       id="clipPath4062-3"><rect
         style="fill:#666666;fill-opacity:1;stroke:none;stroke-width:30.3544;paint-order:stroke fill markers;stop-color:#000000"
         id="rect4064-0"
         width="50.683594"
         height="49.948826"
         x="100.74043"
         y="30.137821"
         rx="22.986341"
         ry="9.2263117" /></clipPath><clipPath
       clipPathUnits="userSpaceOnUse"
       id="clipPath4062-2"><rect
         style="fill:#666666;fill-opacity:1;stroke:none;stroke-width:30.3544;paint-order:stroke fill markers;stop-color:#000000"
         id="rect4064-9"
         width="50.683594"
         height="49.948826"
         x="100.74043"
         y="30.137821"
         rx="22.986341"
         ry="9.2263117" /></clipPath></defs><g
     inkscape:groupmode="layer"
     id="layer2"
     inkscape:label="main"
     transform="translate(-15.33118,1.143463e-4)"><g
       id="g611"
       transform="matrix(9.6142212,0,0,9.6142212,-1318.0242,-2068.942)"
       style="display:inline;stroke-width:0.104013"><path
         style="display:inline;fill:#ffffff;stroke-width:4.99999;stroke-linecap:round;stroke-linejoin:round;stroke-miterlimit:8.4;stroke-opacity:0.979763;paint-order:stroke fill markers;stop-color:#000000"
         d="m 114.74025,25.956411 c 1.49551,0.161558 8.30547,2.90137 8.30547,2.90137 l 3.57881,4.705313 c 0,0 0.62159,3.87194 0.62159,4.98732 0,1.11537 -1.74842,3.9995 -1.74842,3.9995 0,0 -3.66376,4.97852 -4.4748,5.26744 -0.81104,0.28892 -5.88802,1.24846 -5.88802,1.24846 l -7.08199,-2.00962 -5.26743,-5.61751 -1.17598,3.1826 -2.737231,2.86264 -4.65614,1.00913 -4.75933,-1.92939 c 0,0 -1.37121,-3.12032 -1.61632,-3.83752 -0.24511,-0.7172 1.44709,-5.24455 1.44709,-5.24455 l 4.41532,-2.65513 5.32102,0.88684 2.890701,2.71986 c 0,0 1.68383,-6.5495 2.9582,-7.5008 1.27437,-0.951305 6.86936,-4.334707 6.86936,-4.334707 z"
         id="path1345"
         transform="matrix(0.10401259,0,0,0.10401259,138.68574,215.19599)" /><path
         style="fill:#cccccc;fill-opacity:1;stroke:none;stroke-width:0.52006;stroke-linecap:round;stroke-linejoin:round;stroke-miterlimit:8.4;stroke-opacity:0.979763;paint-order:stroke fill markers;stop-color:#000000"
         d="m 150.13024,216.55228 0.45146,0.33439 0.14103,0.1245 0.20279,-0.48465 0.37984,0.55283 0.22601,1.05171 c 0,0 -1.04592,-0.20595 -1.09958,-0.20595 -0.0537,0 -0.80409,0.4434 -0.80409,0.4434 l -0.31255,0.79298 -0.53749,-0.34238 -0.62953,0.11441 -0.31601,0.53889 0.10851,0.4729 0.39424,0.2717 0.36162,0.0368 0.29885,-0.0904 0.21525,-0.22473 0.18903,-0.40319 0.32752,0.35449 0.45874,0.30174 0.5649,0.0947 0.64079,-0.19601 0.53783,-0.55371 0.19212,0.30032 0.0988,0.33987 -0.0862,0.59376 -0.28795,0.92753 -0.14608,0.34582 -1.47024,0.28958 -1.44457,0.0909 -1.49754,-0.16125 -0.55793,-0.19575 -0.10428,-1.34584 0.0605,-0.68589 0.24379,0.43846 0.3495,-0.99415 0.4501,-1.00731 -0.10901,-0.48565 1.42954,-0.89298 0.0512,-0.5523 0.84925,0.36002 0.0855,-0.46392 z"
         id="path939" /><path
         style="fill:#cccccc;fill-opacity:1;stroke:none;stroke-width:0.52006;stroke-linecap:round;stroke-linejoin:round;stroke-miterlimit:8.4;stroke-opacity:0.979763;paint-order:stroke fill markers;stop-color:#000000"
         d="m 153.06183,221.58701 0.30183,0.75354 0.0787,0.95624 -3.88171,0.24015 -2.02597,-0.36433 -1.29054,-0.53762 0.1914,-0.31824 -0.005,-0.33093 1.29801,0.29175 1.26959,0.1198 1.25485,-0.0636 1.57995,-0.3597 z"
         id="path527" /><path
         style="fill:#55ff55;fill-opacity:1;stroke:none;stroke-width:0.52006;stroke-linecap:round;stroke-linejoin:round;stroke-miterlimit:8.4;stroke-opacity:0.979763;paint-order:stroke fill markers;stop-color:#000000"
         d="m 146.73517,220.10897 0.64777,1.28296 0.47722,0.69765 0.21047,-0.66468 0.20222,-0.29057 0.28709,0.71867 0.32326,0.54919 0.35118,0.006 0.10012,-0.63331 0.35205,-0.89415 0.23647,0.64049 0.17223,0.80571 0.40519,-0.0919 0.32759,-0.98487 0.0801,-0.51358 0.41139,0.61466 0.31311,0.67543 0.17689,-0.10788 0.32536,-1.05673 0.25933,-1.44666 0.34609,1.11379 0.10208,1.01545 -0.67972,0.40331 -1.49507,0.35755 -1.02078,0.11843 -0.87693,0.0179 -1.91243,-0.30394 -0.22817,-1.5011 z"
         id="path721" /><path
         style="fill:#0d0d0d;stroke:none;stroke-width:0.104013"
         d="m 150.29503,215.19601 c 0.22501,0.4785 0.48177,1.10957 0.35474,1.64301 h -0.0373 c -0.41062,-0.71115 -1.36659,-1.27772 -2.18446,-1.28827 v 0.0187 c 0.55004,0.23953 1.27341,0.60233 1.49365,1.19491 -0.22336,-0.12317 -0.41215,-0.31263 -0.6348,-0.44311 -0.53222,-0.31188 -1.2903,-0.53094 -1.90439,-0.35972 v 0.0187 c 0.46557,0.0578 1.06291,0.35245 1.3256,0.74682 -0.26308,-0.19326 -0.54913,-0.31727 -0.87751,-0.3174 v 0.0187 c 0.40666,0.14859 0.70033,0.29933 0.91485,0.69081 -0.4485,-0.18928 -1.20001,-0.5818 -1.62433,-0.11202 0.44341,-0.0764 0.96861,0.087 1.25092,0.44809 -0.71735,-0.198 -1.4568,-0.27152 -2.14711,0.056 v 0.0187 c 0.4878,-0.0651 1.13269,-0.0856 1.54966,0.22404 -0.47937,-0.0466 -1.25411,0.01 -1.4563,0.54145 0.36289,-0.0898 0.70344,-0.30702 1.08289,-0.11976 0.0884,0.0436 0.20928,0.11654 0.24592,0.21363 0.0493,0.13062 -0.14626,0.38499 -0.20143,0.50358 -0.20719,0.44535 -0.35505,0.90569 -0.52993,1.36295 h -0.0187 l -0.20537,-0.61613 h -0.0187 c -0.1393,0.7848 -0.0958,1.50696 -0.0187,2.29648 l -0.46677,-0.16804 c 0.0378,0.14981 0.20114,0.40939 0.15093,0.56012 -0.0373,0.11191 -0.16248,0.19843 -0.22561,0.29873 0.44739,0.19494 0.87543,0.42047 1.34428,0.56803 1.23722,0.38932 2.63021,0.50496 3.92081,0.45785 0.72748,-0.0266 1.44323,-0.21148 2.16578,-0.24172 0,-0.70468 -0.12696,-1.43776 -0.4481,-2.07243 l -0.20537,0.0747 c -7.1e-4,-0.61816 -0.15086,-1.25979 -0.32961,-1.84838 -0.0572,-0.18829 -0.10564,-0.49438 -0.24918,-0.6348 l -0.0934,0.89619 h -0.0373 c -0.0124,-0.16957 -0.10721,-0.31942 -0.12302,-0.48543 -0.0239,-0.25107 0.0285,-0.464 -0.0731,-0.70949 -0.0799,-0.19318 -0.27013,-0.33283 -0.33622,-0.52277 -0.0798,-0.22935 -0.0821,-0.492 -0.14324,-0.72815 -0.14181,-0.54796 -0.3545,-1.07274 -0.66113,-1.54965 -0.14042,-0.2184 -0.3182,-0.50591 -0.549,-0.6348 m -0.22405,1.49364 0.44809,0.37341 -0.056,-0.13069 0.3174,0.24271 0.0933,-0.44809 h 0.0187 l 0.11202,0.39208 h 0.0187 l 0.0187,-0.1867 h 0.0187 c 0.19342,0.33435 0.35459,0.67044 0.35474,1.06422 -0.25149,-0.0801 -0.47567,-0.18318 -0.74682,-0.18318 -0.17201,0 -0.33503,0.0525 -0.50411,0.0711 v -0.0187 l 0.80284,-0.44809 v -0.0373 l -0.54145,-0.0933 0.0373,0.0747 c -0.57443,0.28235 -0.95701,0.63767 -1.30694,1.17624 0.10482,0.003 0.1686,0.007 0.24272,-0.0747 h 0.0187 l -0.16803,0.57879 c -0.16316,-0.13016 -0.29548,-0.24687 -0.50411,-0.29763 -0.79704,-0.19391 -1.32351,0.84886 -0.69069,1.37198 0.0925,0.0765 0.2014,0.1306 0.31728,0.16117 0.12405,0.0327 0.24782,0.04 0.37341,0.0119 0.13705,-0.0307 0.26738,-0.0967 0.3733,-0.18883 0.1368,-0.11893 0.2289,-0.26387 0.2615,-0.44246 0.19615,0.12711 0.31068,0.34632 0.52278,0.46966 0.47001,0.27332 1.11042,0.27862 1.56832,-0.027 0.19068,-0.1273 0.30474,-0.33447 0.48543,-0.4613 0.0403,0.2143 0.14444,0.41538 0.16462,0.6348 0.0349,0.37899 -0.14077,0.85782 -0.26021,1.21358 -0.0491,0.14634 -0.0961,0.31466 -0.20313,0.42943 -0.24914,-0.46568 -0.43292,-0.98545 -0.82151,-1.36295 -0.0446,0.45763 -0.12599,0.93212 -0.29098,1.36295 -0.0437,0.11419 -0.16411,0.41866 -0.34637,0.30403 -0.091,-0.0572 -0.10575,-0.31819 -0.13353,-0.41606 -0.10536,-0.37132 -0.19913,-0.78065 -0.38669,-1.12023 -0.15663,0.39617 -0.30901,0.78469 -0.42608,1.19492 -0.0298,0.10451 -0.0383,0.37652 -0.1432,0.43093 -0.18844,0.0978 -0.31634,-0.15357 -0.38827,-0.28157 -0.22547,-0.40121 -0.32259,-0.82658 -0.42407,-1.2696 l -0.48543,1.10157 c -0.24944,-0.22161 -0.4208,-0.58499 -0.57347,-0.87752 -0.0575,-0.11017 -0.15223,-0.24623 -0.15745,-0.37341 -0.005,-0.13066 0.0611,-0.28684 0.099,-0.41075 0.0788,-0.2573 0.1606,-0.5134 0.25505,-0.76549 0.0863,-0.23025 0.19111,-0.46395 0.32265,-0.67214 0.0528,-0.0837 0.17905,-0.19464 0.17755,-0.29873 -0.002,-0.10954 -0.12675,-0.20913 -0.17936,-0.29873 l 0.22404,0.0747 -0.056,-0.14936 0.24272,-0.0373 -0.0373,-0.11202 0.59745,0.0747 -0.29873,-0.3174 0.56012,0.11202 -0.14936,-0.26139 c 0.16471,0.007 0.31258,0.0325 0.44809,0.1307 l -0.20538,-0.29873 0.42942,0.11202 -0.42942,-0.54144 c 0.2815,0.0939 0.49343,0.25468 0.72815,0.42942 -0.1511,-0.227 -0.37962,-0.37726 -0.61612,-0.5041 v -0.0187 c 0.36331,0.0364 0.65877,0.20278 0.98953,0.33607 l -0.11202,-0.50411 m 0.41075,1.36971 c 0.38544,-0.0486 0.80373,0.0691 1.07826,0.35097 0.4685,0.48095 0.35142,1.25297 -0.21941,1.59788 -0.16475,0.0995 -0.35119,0.15778 -0.54145,0.18271 -0.9168,0.12008 -1.73778,-0.8856 -1.12077,-1.69014 0.0855,-0.1115 0.19681,-0.20384 0.31794,-0.2746 0.14613,-0.0854 0.31717,-0.14561 0.48543,-0.16682 m -2.10977,0.0493 -0.16803,0.24272 0.52277,0.15541 0.35474,0.12464 c -0.12888,-0.21988 -0.46704,-0.45089 -0.70948,-0.52277 m 1.79237,0.8215 c 3e-4,0.0974 2.7e-4,0.19263 0.0504,0.27978 0.1584,0.2752 0.59936,0.29165 0.79796,0.054 0.178,-0.21301 0.0676,-0.53521 -0.17631,-0.63762 -0.082,-0.0344 -0.17371,-0.0356 -0.26129,-0.0309 -0.0692,0.004 -0.18005,0.0202 -0.21968,0.0864 -0.0684,0.11428 0.0793,0.33049 -0.19108,0.24837 m -1.62433,-0.0119 c 0.8497,-0.0708 0.99118,1.20359 0.13069,1.27828 -0.68028,0.0591 -1.0653,-0.82156 -0.42942,-1.19214 0.0919,-0.0536 0.19341,-0.0773 0.29873,-0.0861 m -0.0747,0.42261 v 0.0373 c 0.0542,0.0777 0.0146,0.11934 -0.056,0.16803 0.22663,0.4326 0.47644,-0.36307 0.056,-0.20537 m 3.93948,0.31739 c 0.15724,0.43499 0.25184,0.92016 0.27957,1.38162 0.008,0.12911 0.0658,0.34223 -0.006,0.45948 -0.0438,0.0712 -0.14463,0.0981 -0.21731,0.12806 -0.18232,0.0753 -0.36473,0.16186 -0.56011,0.19662 l 0.37919,-1.34427 0.12491,-0.82151 m -5.67584,0.61613 0.53939,1.10156 0.56217,0.85885 c -0.21288,-0.0373 -0.42515,-0.0678 -0.6348,-0.12245 -0.0736,-0.0192 -0.1693,-0.0266 -0.22664,-0.0817 -0.094,-0.0902 -0.10925,-0.30812 -0.13344,-0.43069 -0.0565,-0.28643 -0.0862,-0.56882 -0.11106,-0.85885 -0.0127,-0.14843 -0.0406,-0.32214 0.004,-0.46676 m 4.20087,0.59746 c 0.21527,0.28862 0.49224,0.74587 0.56011,1.10156 l -0.85884,0.20537 -0.0187,-0.0187 0.24583,-0.80283 0.0716,-0.48543 m -1.23226,0.1867 c 0.15823,0.35739 0.26344,0.82309 0.28006,1.21359 l -0.67214,0.0373 c 0.0829,-0.38557 0.16309,-0.92399 0.39208,-1.25093 m -1.4563,0.26139 0.25252,0.59746 0.23291,0.41075 -0.76549,-0.0747 c 8.4e-4,-0.30187 0.0709,-0.70244 0.28006,-0.93353 m -1.86705,1.30694 c 0.13981,-0.21233 0.21453,-0.2048 0.13069,-0.46677 0.17875,-0.0345 0.3837,0.0614 0.56012,0.0944 0.37649,0.0705 0.75713,0.12894 1.1389,0.16258 1.0953,0.0965 2.21669,0.0149 3.28601,-0.24548 0.37968,-0.0924 0.75795,-0.2059 1.12023,-0.35309 0.0866,-0.0352 0.30898,-0.17147 0.38558,-0.0789 0.18796,0.22717 0.28122,0.73181 0.32381,1.01794 0.0139,0.0931 0.0759,0.27616 -0.0109,0.34679 -0.1087,0.0885 -0.33937,0.1073 -0.47445,0.12186 -0.36441,0.0392 -0.73551,0.0583 -1.10156,0.0718 -0.74135,0.0272 -1.49874,0.15005 -2.24047,0.11123 -1.06016,-0.0554 -2.14483,-0.37372 -3.11797,-0.78238 z"
         id="path301" /></g><g
       id="g674"
       transform="matrix(9.6168033,0,0,9.6168033,-340.10259,-2965.5109)"
       style="display:inline;stroke-width:0.103985;opacity:0.4"><rect
         style="opacity:1;fill:#ffffff;stroke-width:4.99999;stroke-linecap:round;stroke-linejoin:round;stroke-miterlimit:8.4;stroke-opacity:0.979763;paint-order:stroke fill markers;stop-color:#000000"
         id="rect8065"
         width="42.134865"
         height="27.034906"
         x="32.005711"
         y="18.074287"
         rx="0.75726718"
         ry="0.30395371"
         transform="matrix(0.10398466,0,0,0.10398466,35.365451,308.36764)" /><path
         style="fill:#cccccc;fill-opacity:1;stroke:none;stroke-width:0.103985;paint-order:stroke fill markers;stop-color:#000000"
         d="m 38.849942,316.80028 1.68215,0.18894 2.4411,-0.31834 1.69306,-1.18755 -0.54171,-2.02404 -0.964659,1.2996 -1.426891,0.84224 -2.047723,0.39664 -1.224652,0.0143 z"
         id="path4066" /><path
         style="fill:#cccccc;fill-opacity:1;stroke:none;stroke-width:0.103985;paint-order:stroke fill markers;stop-color:#000000"
         d="m 38.637738,313.05135 1.265073,0.38984 0.986459,0.19823 0.837515,-0.0683 0.545309,-0.12062 0.457842,-0.34264 0.473887,-0.63218 0.04628,-1.13044 0.178308,-0.69154 -0.01607,-0.58176 -0.204002,-0.35653 -0.27044,0.6167 -0.128815,-0.84171 -0.435806,-0.44664 -0.03919,0.97442 -0.432752,-0.77037 -0.573275,-0.30132 0.173492,0.61995 -0.759592,-0.5642 -0.49409,-0.111 0.31531,0.74224 -0.842393,-0.55043 -0.693757,-0.17052 -0.06111,0.0851 0.33579,0.44536 0.231878,0.30209 -0.01384,0.22449 -0.789808,-0.34607 -0.72516,-0.0904 -0.400926,0.0658 0.635473,0.40986 0.333406,0.35127 0.12891,0.3901 -0.847399,0.0838 -0.29674,0.11821 0.801531,0.6351 0.437917,0.66349 0.3442,-0.95161 0.982723,-0.57586 0.704352,0.39858 0.803235,0.60708 0.268576,0.10444 0.705803,-0.38971 0.283694,0.37026 0.02539,0.29268 -0.07621,0.27671 -0.2725,0.23531 -0.323802,0.0427 -0.277189,-0.0955 -0.22144,-0.22456 -0.06866,-0.45544 -0.147599,0.0401 -0.07202,0.41897 -0.249005,0.32467 -0.273598,0.20604 -0.469145,0.11928 -0.519665,0.0219 -0.64085,-0.29546 -0.339877,-0.42297 -0.380194,0.49833 z"
         id="path3112" /><path
         style="fill:#f2913f;fill-opacity:1;stroke:none;stroke-width:0.103985;paint-order:stroke fill markers;stop-color:#000000"
         d="m 38.58484,313.07225 -0.236809,1.30909 0.209016,1.60659 1.438782,-0.0505 1.705073,-0.28606 1.430995,-0.88389 0.637209,-0.7861 -0.593741,-1.68338 -0.224225,0.59557 -0.415768,0.39207 -0.666309,0.30398 -1.128475,0.0359 -1.303158,-0.27053 z"
         id="path683"
         sodipodi:nodetypes="cccccccccccccc" /><path
         fill="url(#IconifyId1813088fe1fbc01fb466)"
         d="m 41.748172,309.44811 -0.373461,1.68075 c -0.0077,0.0347 -0.05036,0.0477 -0.07609,0.0232 l -1.252503,-1.19352 c -0.02804,-0.0267 -0.01219,-0.074 0.02629,-0.0784 l 1.095584,0.50736 c 0,0 -0.0011,-0.19237 0.514841,-0.98991 0.03441,-0.0175 0.07371,0.0129 0.06534,0.0506 z"
         id="path328"
         style="fill:#ffcc00;stroke-width:0.00342569"
         sodipodi:nodetypes="ccccccccc" /><path
         style="fill:#000000;stroke-width:0.103985"
         d="m 39.851867,317.08125 c -0.209491,-0.0425 -0.515119,-0.11693 -0.679175,-0.16532 -0.358565,-0.10576 -0.330465,-0.10478 -0.436954,-0.0152 -0.08652,0.0728 -0.08652,0.0728 -0.153445,-0.0785 -0.05471,-0.1237 -0.08795,-0.16081 -0.182069,-0.20326 -0.127162,-0.0573 -0.139647,-0.09 -0.01651,-0.0432 0.109087,0.0415 0.110551,0.0319 0.03297,-0.2145 -0.348105,-1.10579 -0.311712,-2.54334 0.09579,-3.78363 0.152239,-0.46336 -0.259847,-1.07237 -0.964182,-1.42494 -0.172276,-0.0862 -0.31686,-0.16041 -0.321299,-0.16484 -0.02384,-0.0238 0.290519,-0.18988 0.48434,-0.25591 0.185981,-0.0634 0.275382,-0.0768 0.525275,-0.0789 0.336872,-0.003 0.341335,-0.006 0.259566,-0.20208 -0.142481,-0.341 -0.659818,-0.66807 -1.329616,-0.84062 -0.164862,-0.0425 -0.258824,-0.093 -0.176634,-0.095 0.01156,-3.4e-4 0.128172,-0.0198 0.259146,-0.0433 0.679256,-0.12193 1.597144,0.0119 2.067645,0.30141 0.125708,0.0774 0.135629,0.053 0.05239,-0.12886 -0.128879,-0.28151 -0.416092,-0.53616 -0.852313,-0.75567 -0.266893,-0.13431 -0.2604,-0.14057 0.12607,-0.12166 0.516081,0.0253 1.19052,0.24196 1.55029,0.49814 0.09893,0.0704 0.128135,0.0579 0.0802,-0.0343 -0.06891,-0.13267 -0.222745,-0.29677 -0.378486,-0.40376 -0.160017,-0.10993 -0.160017,-0.10993 -0.02805,-0.11855 0.31924,-0.0209 0.834928,0.15251 1.224627,0.41171 0.133283,0.0886 0.235316,0.14139 0.226743,0.11718 -0.018,-0.0508 -0.14822,-0.25088 -0.250997,-0.38563 -0.08863,-0.1162 -0.05211,-0.12148 0.23423,-0.0338 0.429105,0.13137 0.733043,0.3562 0.903314,0.66821 0.141897,0.26002 0.134351,-0.17535 -0.01013,-0.58487 -0.04644,-0.13164 -0.04662,-0.13153 0.09291,-0.0603 0.366901,0.18718 0.638315,0.59496 0.700765,1.05285 0.02969,0.21773 0.07961,0.1229 0.10722,-0.20368 0.0178,-0.21058 0.0178,-0.21058 0.09775,-0.11551 0.349593,0.41569 0.447513,1.0359 0.236373,1.49709 -0.262648,0.5737 -0.137864,1.65787 0.264059,2.29427 0.147015,0.23278 0.142089,0.2343 0.267362,-0.0822 0.105322,-0.26611 0.105322,-0.26611 0.191662,-0.19955 0.07024,0.0541 0.09015,0.0946 0.106785,0.21708 0.09508,0.70005 0.313038,1.66529 0.415754,1.84121 0.02425,0.0415 0.149289,0.36897 0.184748,0.4838 0.01824,0.059 -0.130208,0.17768 -0.592932,0.47387 -1.386224,0.88734 -3.05261,1.25753 -4.415174,0.98085 z m 1.375453,-0.26829 c 1.16602,-0.16991 2.403138,-0.72833 3.15929,-1.42607 0.02846,-0.0263 0.01113,-0.11887 -0.08709,-0.46552 -0.113095,-0.39915 -0.180024,-0.6968 -0.235247,-1.04619 -0.02168,-0.13718 -0.02168,-0.13718 -0.165735,0.0981 -0.796357,1.30042 -2.3909,2.04311 -4.487997,2.09038 -0.682139,0.0154 -0.682139,0.0154 -0.664766,0.10269 0.03053,0.15343 0.130035,0.50719 0.153218,0.5447 0.08928,0.14446 1.586661,0.21002 2.328331,0.10195 z m -1.557731,-0.95578 c 0.14077,-0.0119 0.210999,-0.0289 0.20213,-0.049 -0.0995,-0.2254 -0.226043,-0.55636 -0.28893,-0.75563 -0.07844,-0.24857 -0.07844,-0.24857 -0.30922,-0.31487 -0.126926,-0.0365 -0.322338,-0.0993 -0.434246,-0.13972 -0.33618,-0.12131 -0.329541,-0.12174 -0.329541,0.0213 0,0.20411 0.08703,0.87089 0.155723,1.19311 0.01467,0.0688 0.476463,0.0894 1.004084,0.0448 z m 0.969398,-0.14079 c 0.431551,-0.0857 0.403078,-0.0463 0.309766,-0.42931 -0.07849,-0.32218 -0.07849,-0.32218 -0.439267,-0.33954 -0.198426,-0.01 -0.458176,-0.034 -0.577219,-0.0544 -0.119043,-0.0204 -0.22316,-0.0303 -0.231366,-0.0221 -0.02393,0.0239 0.222266,0.82735 0.284274,0.92768 0.01904,0.0308 0.197179,0.008 0.653812,-0.0824 z m 0.758176,-0.20175 c 0.63333,-0.21599 0.614603,-0.20011 0.614603,-0.52113 0,-0.28762 0,-0.28762 -0.240446,-0.20682 -0.132244,0.0444 -0.362081,0.10037 -0.51075,0.1243 -0.148668,0.0239 -0.274403,0.0476 -0.279409,0.0526 -0.0078,0.008 0.08416,0.43945 0.12417,0.58264 0.01758,0.0629 0.01346,0.0633 0.291832,-0.0316 z m 1.19593,-0.57236 c 0.259147,-0.17031 0.259147,-0.17031 0.259147,-0.48708 0,-0.35115 -0.0047,-0.35843 -0.139966,-0.21883 -0.09897,0.10211 -0.410538,0.32152 -0.540957,0.38094 -0.07492,0.0341 -0.0755,0.0366 -0.0755,0.32464 0,0.33379 -0.01013,0.33379 0.49728,3.4e-4 z m -1.769007,-0.26454 c -0.01514,-0.0754 -0.07883,-0.52291 -0.115305,-0.81015 -0.01838,-0.14477 -0.01838,-0.14477 -0.163156,-0.16365 -0.249474,-0.0325 -0.712256,-0.14302 -1.056026,-0.25213 -0.07699,-0.0244 -0.06785,0.10313 0.05214,0.7283 0.08501,0.44288 0.08416,0.44226 0.719031,0.53013 0.479126,0.0663 0.581957,0.0604 0.563312,-0.0325 z m 0.641369,0.003 c 0.559719,-0.10601 0.552361,-0.0953 0.485509,-0.70443 -0.03728,-0.33969 -0.01626,-0.31795 -0.261383,-0.27035 -0.10786,0.0209 -0.344244,0.0386 -0.525296,0.0391 -0.329186,10e-4 -0.329186,10e-4 -0.329186,0.12127 0,0.12675 0.0758,0.75519 0.101316,0.83999 0.01699,0.0565 0.122808,0.0513 0.52904,-0.0256 z m 1.726142,-0.22722 c 0.322395,-0.33494 0.403007,-0.44822 0.372514,-0.52351 -0.01401,-0.0346 -0.0633,-0.16575 -0.109529,-0.29143 -0.09778,-0.26585 -0.09706,-0.26539 -0.172958,-0.10917 -0.03193,0.0657 -0.128995,0.21379 -0.215703,0.32905 -0.15765,0.20956 -0.15765,0.20956 -0.15765,0.51087 0,0.37071 0.0059,0.37245 0.283326,0.0842 z m -3.811234,-0.30897 c -0.03253,-0.18061 -0.07467,-0.42684 -0.09365,-0.54716 -0.03451,-0.21877 -0.03451,-0.21877 -0.314668,-0.32908 -0.154089,-0.0607 -0.294544,-0.11036 -0.312128,-0.11042 -0.04125,-1e-4 -0.120481,0.4163 -0.141439,0.74343 -0.01812,0.28283 0.0066,0.30321 0.646077,0.53228 0.302238,0.10827 0.290247,0.12433 0.215808,-0.28905 z m 2.970252,0.18603 c 0.439907,-0.28422 0.483075,-0.34332 0.462681,-0.63347 -0.03531,-0.5023 -0.04163,-0.5247 -0.126147,-0.4468 -0.120349,0.11092 -0.331449,0.24367 -0.487036,0.30627 -0.202676,0.0815 -0.199068,0.0745 -0.165393,0.32053 0.0165,0.12056 0.03824,0.298 0.0483,0.3943 0.02192,0.20983 0.03122,0.21189 0.267595,0.0592 z m 0.823553,-0.82071 c 0.152114,-0.22602 0.152114,-0.22602 0.08529,-0.49217 -0.03675,-0.14638 -0.07498,-0.30349 -0.08496,-0.34913 -0.01797,-0.0822 -0.01897,-0.0814 -0.107386,0.084 -0.04909,0.0919 -0.1225,0.21115 -0.163136,0.26508 -0.07388,0.0981 -0.07388,0.0981 -0.02997,0.45524 0.05138,0.4179 0.04433,0.41703 0.300155,0.0369 z m -1.251252,-0.0412 c 0.818791,-0.23997 1.184583,-0.71973 1.196258,-1.56895 0.0071,-0.51354 0.03171,-0.66987 0.157264,-0.99722 0.09447,-0.24631 0.09398,-0.67017 -0.0011,-0.8685 -0.06708,-0.14007 -0.06708,-0.14007 -0.09008,-0.0181 -0.03265,0.17316 -0.145607,0.35093 -0.295886,0.46568 -0.165801,0.1266 -0.180264,0.12427 -0.126345,-0.0203 0.112464,-0.3016 0.04485,-0.73259 -0.166143,-1.05904 -0.12766,-0.19752 -0.153489,-0.20111 -0.106588,-0.0148 0.0737,0.2927 -0.01522,0.68787 -0.207021,0.91991 -0.06378,0.0772 -0.06378,0.0772 -0.06263,-0.12607 0.002,-0.35155 -0.208168,-0.68946 -0.62514,-1.00511 -0.218936,-0.16574 -0.234674,-0.15974 -0.102622,0.0392 0.138949,0.20927 0.24078,0.51605 0.256956,0.77411 0.01334,0.21274 0.01334,0.21274 -0.07336,0.0587 -0.272469,-0.48424 -0.864841,-0.97608 -1.302812,-1.0817 -0.08313,-0.02 -0.08313,-0.02 0.0227,0.10359 0.195674,0.22858 0.354603,0.64067 0.354603,0.91944 0,0.12568 0,0.12568 -0.0845,-0.008 -0.288455,-0.45485 -1.15898,-0.99837 -1.59903,-0.99837 -0.01338,0 0.06832,0.0914 0.18156,0.20312 0.279965,0.2762 0.460861,0.67408 0.431853,0.94985 -0.0085,0.0808 -0.0085,0.0808 -0.160665,-0.022 -0.449467,-0.30348 -1.069154,-0.51465 -1.510236,-0.51465 -0.158627,10e-6 -0.158627,10e-6 0.07749,0.13308 0.272697,0.15369 0.543086,0.40704 0.650563,0.60957 0.137101,0.25835 0.173941,0.63412 0.05768,0.58838 -0.190558,-0.075 -0.493278,-0.0785 -0.846308,-0.01 -0.218022,0.0423 -0.220553,0.0504 -0.03918,0.12407 0.335632,0.13641 0.645813,0.41256 0.812648,0.72348 0.08707,0.16226 0.08707,0.16226 0.105557,0.0229 0.04546,-0.34266 0.337908,-0.69982 0.72525,-0.88572 0.202745,-0.0973 0.202745,-0.0973 0.111694,-0.12995 -0.112712,-0.0404 -0.112698,-0.0505 1.91e-4,-0.19855 0.16542,-0.21688 0.329615,-0.2739 0.520075,-0.18061 0.391813,0.19193 0.896411,0.61748 1.208662,1.01932 0.08421,0.10837 0.164617,0.18992 0.178685,0.18123 0.07535,-0.0466 -0.05597,-0.55348 -0.206962,-0.79886 -0.11191,-0.18189 -0.09207,-0.19446 0.05501,-0.0349 0.151312,0.16415 0.269576,0.41533 0.310894,0.66031 0.03697,0.21916 0.05284,0.22996 0.150281,0.10221 0.08152,-0.10688 0.115067,-0.18473 0.202156,-0.46915 0.06056,-0.19778 0.06443,-0.20339 0.06584,-0.0955 0.0021,0.16138 -0.09734,0.53031 -0.18181,0.67445 -0.08337,0.14226 -0.0798,0.14388 0.109202,0.0495 0.330024,-0.1648 0.493392,-0.44883 0.380013,-0.66067 -0.04232,-0.0791 -0.02564,-0.0852 0.136843,-0.0504 0.248223,0.0532 0.438754,0.22514 0.306677,0.2767 -0.188249,0.0735 -0.251018,0.20956 -0.143749,0.31162 0.258705,0.24615 0.282003,0.64623 0.05342,0.91733 -0.36309,0.43062 -1.117769,0.19711 -1.157944,-0.35829 -0.01477,-0.20421 -0.04776,-0.21804 -0.07011,-0.0294 -0.123774,1.04508 -1.955554,1.37785 -2.54816,0.46291 -0.03448,-0.0532 -0.07153,-0.0969 -0.08234,-0.0971 -0.02388,-4.3e-4 -0.260514,0.47157 -0.244102,0.48689 0.13704,0.12795 1.49087,0.52848 1.986732,0.58777 0.283688,0.0339 1.026237,-0.005 1.227895,-0.0637 z M 40.624,312.91882 c 0.49395,-0.12866 0.820361,-0.486 0.849474,-0.92997 0.01614,-0.2462 -0.009,-0.29312 -0.253649,-0.47321 -0.864459,-0.63638 -1.405914,-0.69996 -1.884585,-0.22129 -0.764696,0.7647 0.152249,1.92049 1.28876,1.62447 z m -0.376788,-0.60279 c -0.339968,-0.0775 -0.38286,-0.56586 -0.06239,-0.71037 0.198595,-0.0895 0.538029,0.0435 0.417763,0.16381 -0.07562,0.0756 0.0076,0.19412 0.09739,0.13864 0.02263,-0.014 0.02687,0.0107 0.01471,0.0857 -0.03975,0.24498 -0.23027,0.3763 -0.467469,0.32221 z m 2.364023,0.17754 c 0.325188,-0.22855 0.336094,-0.64636 0.02388,-0.91497 -0.06,-0.0516 -0.0623,-0.0512 -0.153029,0.0253 -0.121195,0.10221 -0.49834,0.28362 -0.639083,0.3074 -0.111402,0.0188 -0.111402,0.0188 -0.111402,0.15095 0,0.41656 0.530515,0.6767 0.879629,0.43134 z m -0.441041,-0.28344 c -0.09661,-0.10675 -0.02006,-0.25694 0.13094,-0.25694 0.05654,0 0.07484,0.0139 0.07484,0.0569 0,0.0313 0.01891,0.0642 0.04203,0.073 0.0567,0.0218 0.05294,0.0756 -0.0092,0.13186 -0.06766,0.0612 -0.18086,0.0589 -0.238591,-0.005 z"
         id="path636" /><path
         fill="url(#IconifyId1813088fe1fbc01fb466)"
         d="M 155.18745,21.957382 143.8513,72.975311 c -0.23406,1.053386 -1.5286,1.44723 -2.30974,0.703067 L 103.52267,37.449933 c -0.85117,-0.810871 -0.36989,-2.246632 0.79815,-2.380655 l 33.25572,15.400491 c 0,0 -0.0342,-5.839115 15.62766,-30.048023 1.04457,-0.532594 2.23744,0.391317 1.98329,1.53577 z"
         id="path3948"
         style="fill:#ffcc00;stroke-width:0.103985"
         sodipodi:nodetypes="ccccccccc"
         clip-path="url(#clipPath4062)"
         transform="matrix(0.03294423,0,0,0.03294423,36.635641,308.72474)" /></g></g></svg>
